<?xml version="1.0" standalone="no"?>
<!DOCTYPE svg PUBLIC "-//W3C//DTD SVG 20010904//EN"
 "http://www.w3.org/TR/2001/REC-SVG-20010904/DTD/svg10.dtd">
<svg version="1.0" xmlns="http://www.w3.org/2000/svg"
 width="200.000000pt" height="200.000000pt" viewBox="0 0 200.000000 200.000000"
 preserveAspectRatio="xMidYMid meet">

<g transform="translate(0.000000,200.000000) scale(0.100000,-0.100000)"
fill="#000000" stroke="none">
<path d="M814 1267 c-2 -7 -3 -69 -2 -138 l3 -124 78 -3 77 -3 0 -29 c0 -17 4
-30 8 -30 5 0 7 14 4 30 l-4 30 104 0 c68 0 108 4 116 12 17 17 17 239 0 256
-18 18 -377 17 -384 -1z m381 -127 l0 -125 -187 -3 -188 -2 0 130 0 130 188
-2 187 -3 0 -125z"/>
<path d="M1006 1144 c-15 -36 -25 -68 -23 -70 2 -2 16 26 30 63 15 37 25 68
23 70 -2 2 -16 -26 -30 -63z"/>
<path d="M925 1180 c-3 -6 1 -7 9 -4 18 7 21 14 7 14 -6 0 -13 -4 -16 -10z"/>
<path d="M1104 1166 c10 -9 24 -18 30 -21 8 -4 8 -6 0 -10 -6 -3 -20 -12 -30
-21 -14 -11 -9 -10 19 3 20 9 37 20 37 23 0 3 -17 14 -37 23 -28 13 -33 14
-19 3z"/>
<path d="M883 1158 c-30 -14 -29 -22 5 -37 25 -10 26 -10 8 4 -20 15 -20 15 0
30 22 17 18 18 -13 3z"/>
<path d="M927 1099 c7 -7 15 -10 18 -7 3 3 -2 9 -12 12 -14 6 -15 5 -6 -5z"/>
<path d="M1353 800 c0 -47 1 -77 4 -68 4 16 6 16 28 2 14 -9 30 -14 37 -11 9
4 8 6 -3 6 -9 1 -22 7 -28 15 -9 11 -7 15 9 19 20 5 29 37 10 37 -5 0 -7 -7
-4 -15 5 -11 -1 -15 -21 -15 -25 0 -26 2 -14 17 8 10 9 14 2 10 -8 -5 -13 7
-16 40 -2 27 -4 10 -4 -37z"/>
<path d="M400 783 l4 -68 6 55 5 55 24 -33 23 -33 27 37 26 37 3 -57 c2 -31 6
-56 10 -56 4 0 5 29 4 65 -2 36 -7 65 -10 65 -4 0 -18 -16 -32 -36 l-24 -36
-31 36 c-16 20 -32 36 -35 36 -3 0 -3 -30 0 -67z"/>
<path d="M1088 800 c-65 -64 -64 -82 4 -78 35 2 53 8 56 18 4 12 2 13 -9 3
-15 -14 -89 -18 -89 -5 0 5 20 27 45 50 25 22 45 46 45 51 0 14 4 17 -52 -39z"/>
<path d="M753 815 c-6 -14 -7 -25 -3 -25 5 0 10 -15 12 -32 2 -27 8 -33 28
-35 22 -1 22 -1 3 4 -17 3 -23 11 -23 33 0 22 5 30 23 33 22 4 22 4 0 6 -13 0
-23 9 -25 21 -3 18 -4 18 -15 -5z"/>
<path d="M570 789 c0 -5 5 -7 10 -4 6 3 10 8 10 11 0 2 -4 4 -10 4 -5 0 -10
-5 -10 -11z"/>
<path d="M616 785 c4 -10 0 -15 -14 -15 -23 0 -47 -25 -38 -39 4 -5 25 -9 47
-8 23 1 36 3 30 5 -6 2 -11 19 -11 38 0 19 -4 34 -10 34 -5 0 -7 -7 -4 -15z
m4 -34 c0 -6 -5 -13 -10 -16 -15 -9 -43 3 -35 15 8 13 45 13 45 1z"/>
<path d="M669 757 c5 -37 6 -39 9 -12 2 17 8 35 12 40 6 7 2 11 -8 12 -15 1
-17 -5 -13 -40z"/>
<path d="M715 790 c3 -5 8 -10 11 -10 2 0 4 5 4 10 0 6 -5 10 -11 10 -5 0 -7
-4 -4 -10z"/>
<path d="M827 792 c6 -4 13 -23 16 -42 4 -33 4 -33 5 8 2 34 -1 42 -15 42 -12
0 -14 -3 -6 -8z"/>
<path d="M878 791 c6 -3 12 -22 15 -41 l4 -35 1 37 c1 20 8 38 15 41 6 2 -1 4
-17 4 -15 0 -24 -2 -18 -6z"/>
<path d="M1172 761 c-1 -40 -1 -40 37 -38 35 1 37 2 27 24 -7 14 -20 23 -35
23 -16 0 -21 4 -17 15 3 8 2 15 -3 15 -5 0 -9 -18 -9 -39z m46 -13 c-7 -19
-38 -22 -38 -4 0 10 9 16 21 16 12 0 19 -5 17 -12z"/>
<path d="M1215 790 c3 -5 8 -10 11 -10 2 0 4 5 4 10 0 6 -5 10 -11 10 -5 0 -7
-4 -4 -10z"/>
<path d="M1268 791 c6 -3 12 -22 15 -41 l4 -35 1 37 c1 20 8 38 15 41 6 2 -1
4 -17 4 -15 0 -24 -2 -18 -6z"/>
<path d="M1450 785 c-26 -32 13 -81 48 -59 20 13 23 65 4 72 -11 3 -11 0 -1
-16 16 -25 5 -52 -20 -52 -24 0 -37 35 -21 55 7 8 10 15 7 15 -2 0 -10 -7 -17
-15z"/>
<path d="M1541 795 c0 -5 8 -26 18 -44 l19 -35 21 42 c12 23 19 42 16 42 -2 0
-12 -14 -21 -32 l-16 -32 -19 35 c-10 19 -18 30 -18 24z"/>
<path d="M950 750 c0 -16 4 -30 8 -30 5 0 7 14 4 30 -2 17 -6 30 -8 30 -2 0
-4 -13 -4 -30z"/>
</g>
</svg>
